<svg viewBox="-0.5 -0.5 16 16" fill="none" xmlns="http://www.w3.org/2000/svg"
    id="History-3--Streamline-Solar" height="16" width="16">
    <path fill-rule="evenodd" clip-rule="evenodd"
        d="M5.6872375 1.4984624999999998c0.09322499999999999 0.2415125 -0.02698125 0.512875 -0.26849375000000003 0.6061062500000001 -0.0884 0.034125 -0.17575000000000002 0.07035625000000001 -0.26199375 0.10864375000000001 -0.23661875 0.10504374999999999 -0.5135875 -0.0016124999999999998 -0.618625 -0.23823125 -0.10504374999999999 -0.2366125 0.0016124999999999998 -0.51358125 0.23823125 -0.618625 0.1003125 -0.044531249999999994 0.20193125 -0.0866875 0.304775 -0.1263875 0.2415125 -0.09323125 0.512875 0.02698125 0.6061062500000001 0.26849375000000003ZM3.5298125000000002 2.6501625c0.17854375 0.18746875 0.1713 0.48418125 -0.01616875 0.6627187499999999 -0.06854375 0.065275 -0.1354875 0.13221875 -0.2007625 0.2007625 -0.17853750000000002 0.18746875 -0.47524999999999995 0.19471249999999998 -0.6627187499999999 0.01616875 -0.18746875 -0.17853750000000002 -0.19470624999999997 -0.47524375 -0.01616875 -0.6627125 0.07579375000000001 -0.07958124999999999 0.15351874999999998 -0.1573125 0.23310625000000001 -0.23310625000000001 0.18746875 -0.17853750000000002 0.484175 -0.1713 0.6627125 0.01616875ZM1.97498125 4.538125c0.23661875 0.10504374999999999 0.343275 0.38200625 0.23823125 0.618625 -0.0382875 0.08624375000000001 -0.07451875 0.17359375 -0.10864375000000001 0.26199375 -0.09323125 0.2415125 -0.36459375000000005 0.36171875 -0.6061062500000001 0.26849375000000003 -0.2415125 -0.09323125 -0.361725 -0.36459375000000005 -0.26849375000000003 -0.6061062500000001 0.0397 -0.10284375 0.08185625 -0.2044625 0.1263875 -0.304775 0.10504374999999999 -0.23661875 0.3820125 -0.343275 0.618625 -0.23823125Zm-0.7118 2.339375c0.25880625 0.0063124999999999995 0.46354375000000003 0.22118749999999998 0.45728749999999996 0.4799375 -0.00114375 0.047375 -0.0017187499999999998 0.09487499999999999 -0.0017187499999999998 0.1425625s0.000575 0.0951875 0.0017187499999999998 0.1425625c0.00625625 0.25875 -0.19848125 0.473625 -0.45728749999999996 0.4799375 -0.2588125 0.00625 -0.47368750000000004 -0.1985 -0.4799375 -0.4573125C0.78191875 7.61025 0.78125 7.555187500000001 0.78125 7.5c0 -0.0551875 0.00066875 -0.11025 0.00199375 -0.1651875 0.00625 -0.2588125 0.22112500000000002 -0.4635625 0.4799375 -0.4573125Zm12.238381250000002 2.43525c0.24150000000000002 0.09325 0.3616875 0.36462500000000003 0.2684375 0.606125 -0.0396875 0.1028125 -0.0818125 0.2044375 -0.126375 0.30474999999999997 -0.10500000000000001 0.236625 -0.382 0.3433125 -0.618625 0.23825 -0.236625 -0.1050625 -0.34325 -0.382 -0.2381875 -0.618625 0.03825 -0.08625000000000001 0.0745 -0.173625 0.108625 -0.262 0.09325 -0.24150000000000002 0.3645625 -0.3616875 0.606125 -0.26849999999999996Zm-12.0031 0c0.2415125 -0.0931875 0.512875 0.027000000000000003 0.6061062500000001 0.26849999999999996 0.034125 0.088375 0.07035625000000001 0.17575000000000002 0.10864375000000001 0.262 0.10504374999999999 0.236625 -0.0016124999999999998 0.5135625 -0.23823125 0.618625 -0.2366125 0.1050625 -0.51358125 -0.001625 -0.618625 -0.23825 -0.044531249999999994 -0.1003125 -0.0866875 -0.2019375 -0.1263875 -0.30474999999999997 -0.09323125 -0.24150000000000002 0.02698125 -0.512875 0.26849375000000003 -0.606125Zm10.85135 2.1574375000000003c0.1875 0.1785625 0.19474999999999998 0.47524999999999995 0.0161875 0.6626875 -0.0758125 0.079625 -0.1535 0.1573125 -0.233125 0.233125 -0.1874375 0.1785625 -0.48412499999999997 0.1713125 -0.6626875 -0.0161875 -0.1785625 -0.1874375 -0.1713125 -0.48412499999999997 0.0161875 -0.6626875 0.0685 -0.0653125 0.1354375 -0.13225 0.20074999999999998 -0.20074999999999998 0.1785625 -0.1875 0.47524999999999995 -0.19474999999999998 0.6626875 -0.0161875Zm-9.69965 0c0.18746875 -0.1785625 0.48418125 -0.1713125 0.6627187499999999 0.0161875 0.065275 0.0685 0.13221875 0.1354375 0.2007625 0.20074999999999998 0.18746875 0.1785625 0.19471249999999998 0.47524999999999995 0.01616875 0.6626875 -0.17853750000000002 0.1875 -0.47524375 0.19474999999999998 -0.6627125 0.0161875 -0.07958124999999999 -0.0758125 -0.1573125 -0.1535 -0.23310625000000001 -0.233125 -0.17853750000000002 -0.1874375 -0.1713 -0.48412499999999997 0.01616875 -0.6626875ZM4.538125 13.025c0.10504374999999999 -0.236625 0.38200625 -0.34325 0.618625 -0.2381875 0.08624375000000001 0.03825 0.17359375 0.0745 0.26199375 0.108625 0.2415125 0.09325 0.36171875 0.3645625 0.26849375000000003 0.606125 -0.09323125 0.24150000000000002 -0.36459375000000005 0.3616875 -0.6061062500000001 0.2684375 -0.10284375 -0.0396875 -0.2044625 -0.0818125 -0.304775 -0.126375 -0.23661875 -0.10500000000000001 -0.343275 -0.382 -0.23823125 -0.618625Zm5.92375 0c0.1050625 0.236625 -0.001625 0.513625 -0.23825 0.618625 -0.1003125 0.044562500000000005 -0.2019375 0.0866875 -0.30474999999999997 0.126375 -0.24150000000000002 0.09325 -0.512875 -0.0269375 -0.606125 -0.2684375 -0.0931875 -0.2415625 0.027000000000000003 -0.512875 0.26849999999999996 -0.606125 0.088375 -0.034125 0.17575000000000002 -0.07037500000000001 0.262 -0.108625 0.236625 -0.1050625 0.5135625 0.0015625 0.618625 0.2381875Zm-3.584375 0.7118125c0.0063124999999999995 -0.2588125 0.22118749999999998 -0.4635625 0.4799375 -0.4573125 0.047375 0.0011875 0.09487499999999999 0.00175 0.1425625 0.00175s0.0951875 -0.0005625 0.1425625 -0.00175c0.25875 -0.00625 0.473625 0.1985 0.4799375 0.4573125 0.00625 0.2588125 -0.1985 0.47368750000000004 -0.4573125 0.4799375 -0.0549375 0.0013124999999999999 -0.10999999999999999 0.002 -0.1651875 0.002 -0.0551875 0 -0.11025 -0.0006875000000000001 -0.1651875 -0.002 -0.2588125 -0.00625 -0.4635625 -0.22112500000000002 -0.4573125 -0.4799375Z"
        fill="#999999" stroke-width="1"></path>
    <path fill-rule="evenodd" clip-rule="evenodd"
        d="M7.5 1.71875c3.192875 0 5.78125 2.5883562500000004 5.78125 5.78125 0 0.258875 0.20987499999999998 0.46875 0.46875 0.46875s0.46875 -0.20987499999999998 0.46875 -0.46875c0 -3.7106624999999998 -3.0080625 -6.71875 -6.71875 -6.71875 -0.258875 0 -0.46875 0.20986875 -0.46875 0.46875s0.20987499999999998 0.46875 0.46875 0.46875Z"
        fill="#999999" stroke-width="1"></path>
    <path fill-rule="evenodd" clip-rule="evenodd"
        d="M7.5 5.15625c0.258875 0 0.46875 0.20986875 0.46875 0.46875v2.03125H10c0.258875 0 0.46875 0.20987499999999998 0.46875 0.46875s-0.20987499999999998 0.46875 -0.46875 0.46875h-2.5c-0.258875 0 -0.46875 -0.20987499999999998 -0.46875 -0.46875V5.625c0 -0.25888125 0.20987499999999998 -0.46875 0.46875 -0.46875Z"
        fill="#999999" stroke-width="1"></path>
</svg>