<svg xmlns="http://www.w3.org/2000/svg" width="64" height="64" fill="none" viewBox="0 0 64 64"
  id="ai">
  <path fill="url(#paint0_linear_2813_1974)" fill-rule="evenodd"
    d="M14.0021 6C12.8975 6 12.0021 6.89543 12.0021 8V32C12.0021 33.1046 12.8975 34 14.0021 34H50.0021C51.1066 34 52.0021 33.1046 52.0021 32V29C52.0021 27.8954 52.8975 27 54.0021 27C55.1066 27 56.0021 27.8954 56.0021 29V32C56.0021 33.2949 55.5919 34.494 54.8943 35.4744C55.8004 36.2582 56.4758 37.3138 56.7852 38.5409L60.819 54.5409C61.7793 58.3501 58.8713 62 54.9663 62H9.03836C5.03703 62 2.11101 58.1787 3.24723 54.3156L7.95328 38.3156C8.23362 37.3625 8.73602 36.5222 9.3936 35.8424C8.52483 34.8015 8.00207 33.4618 8.00207 32V8C8.00207 4.68629 10.6884 2 14.0021 2H42.0021C43.1066 2 44.0021 2.89543 44.0021 4C44.0021 5.10457 43.1066 6 42.0021 6H14.0021Z"
    clip-rule="evenodd"></path>
  <path fill="url(#paint1_linear_2813_1974)" fill-rule="evenodd"
    d="M49.0021 2C49.9358 2 50.7453 2.64607 50.9523 3.55654L51.6883 6.79347C52.2001 9.04429 53.9578 10.8019 56.2086 11.3137L59.4455 12.0498C60.356 12.2568 61.0021 13.0663 61.0021 14C61.0021 14.9337 60.356 15.7432 59.4455 15.9502L56.2086 16.6863C53.9578 17.1981 52.2001 18.9557 51.6883 21.2065L50.9523 24.4435C50.7453 25.3539 49.9358 26 49.0021 26C48.0684 26 47.2589 25.3539 47.0518 24.4435L46.3158 21.2065C45.804 18.9557 44.0464 17.1981 41.7955 16.6863L38.5586 15.9502C37.6481 15.7432 37.0021 14.9337 37.0021 14C37.0021 13.0663 37.6481 12.2568 38.5586 12.0498L41.7955 11.3137C44.0464 10.8019 45.804 9.04429 46.3158 6.79346L47.0518 3.55654C47.2589 2.64607 48.0684 2 49.0021 2Z"
    clip-rule="evenodd"></path>
  <defs>
    <linearGradient id="paint0_linear_2813_1974" x1="77.094" x2="23.623" y1="74.123" y2="13.651"
      gradientUnits="userSpaceOnUse">
      <stop offset=".003" stop-color="#4DE6C9"></stop>
      <stop offset="1" stop-color="#B0F590"></stop>
    </linearGradient>
    <linearGradient id="paint1_linear_2813_1974" x1="77.094" x2="23.623" y1="74.123" y2="13.651"
      gradientUnits="userSpaceOnUse">
      <stop offset=".003" stop-color="#4DE6C9"></stop>
      <stop offset="1" stop-color="#B0F590"></stop>
    </linearGradient>
  </defs>
</svg>